<?xml version="1.0" encoding="UTF-8"?>
<svg id="Layer_2" data-name="Layer 2" xmlns="http://www.w3.org/2000/svg" xmlns:xlink="http://www.w3.org/1999/xlink" viewBox="0 0 40.73 153.42">
  <defs>
    <style>
      .cls-1 {
        fill: url(#New_Gradient_Swatch_2);
        stroke: #231f20;
        stroke-miterlimit: 10;
      }
    </style>
    <linearGradient id="New_Gradient_Swatch_2" data-name="New Gradient Swatch 2" x1="-23.12" y1="119.77" x2="64.44" y2="32.21" gradientUnits="userSpaceOnUse">
      <stop offset="0" stop-color="#231f20"/>
      <stop offset=".15" stop-color="#fff"/>
      <stop offset=".3" stop-color="#939598"/>
      <stop offset=".48" stop-color="#fff"/>
      <stop offset=".65" stop-color="#808285"/>
      <stop offset=".84" stop-color="#fff"/>
      <stop offset="1" stop-color="#231f20"/>
    </linearGradient>
  </defs>
  <g id="Layer_1-2" data-name="Layer 1">
    <path class="cls-1" d="M18.31,152.92c-6.08,0-11.79-2.95-16.98-8.79l-.12-.14c-.46-.51-.71-1.18-.71-1.86V13.44c0-1.55,1.25-2.8,2.8-2.8h.98c1.55,0,2.8,1.25,2.8,2.8v126.05c0,.77.32,1.51.88,2.04,3.55,3.37,7.24,4.98,10.97,4.79,6.3-.32,11.65-5.49,14.02-8.17.45-.51.69-1.16.69-1.84V12.09c0-.85-.39-1.67-1.06-2.2-2.52-1.96-5.04-2.9-7.54-2.8-2.91.12-5.34,1.61-6.86,2.83-.62.5-.99,1.23-1.04,2.03-.37,6.93-1.44,27.88-2.05,49.38-1.18,41.55.22,53.1,1.07,56.3.15.58.49,1.09.96,1.45.86.66,1.71.97,2.57.97.01,0,.02,0,.03,0,1.48-.03,2.64-1.31,2.64-2.8V31.29c0-1.55,1.25-2.8,2.8-2.8h.98c1.55,0,2.8,1.25,2.8,2.8v89.61c0,.72-.28,1.42-.78,1.94l-.14.14c-.35.37-3.6,3.61-8.27,3.65-2.02,0-5.08-.59-8.1-3.61-1.65-1.65-4.72-4.72-3.19-60.32.74-26.83,2.22-53.27,2.24-53.53v-.16c.04-.6.27-1.17.65-1.63l.1-.12c.22-.26,5.39-6.38,13.23-6.74,5.1-.23,10.01,1.96,14.58,6.52l.14.14c.53.53.82,1.24.82,1.98v129.47c0,.58-.18,1.15-.52,1.63l-.09.13c-.35.49-8.63,11.89-20.3,12.51-.34.02-.67.03-1.01.03Z"/>
  </g>
</svg>