<?xml version="1.0" encoding="UTF-8"?>
<svg id="Layer_2" data-name="Layer 2" xmlns="http://www.w3.org/2000/svg" xmlns:xlink="http://www.w3.org/1999/xlink" viewBox="0 0 139.63 300.66">
  <defs>
    <style>
      .cls-1 {
        fill: url(#New_Gradient_Swatch_1);
        stroke: #231f20;
        stroke-miterlimit: 10;
      }
    </style>
    <linearGradient id="New_Gradient_Swatch_1" data-name="New Gradient Swatch 1" x1="1.82" y1="150.4" x2="139.13" y2="150.4" gradientUnits="userSpaceOnUse">
      <stop offset="0" stop-color="#f9cbdf"/>
      <stop offset=".48" stop-color="#e96aa8"/>
      <stop offset="1" stop-color="#d83092"/>
    </linearGradient>
  </defs>
  <g id="Layer_1-2" data-name="Layer 1">
    <path class="cls-1" d="M115.34.63c-12.97,7.23-26.01,14.5-37.64,23.73-7.05,5.6-13.67,12.07-17.6,20.17-3.68,7.6-4.78,16.18-5.15,24.62-.48,11.16.26,22.55,4.07,33.06,10.45,28.76,40.79,44.67,59.57,68.83,11.18,14.39,18.22,31.96,20.07,50.09,1.3,12.78-.01,26.06-5.58,37.63-9.59,19.92-30.43,32.21-51.64,38.48-10.31,3.05-21.96,4.81-31.39-.35-10.26-5.62-14.83-17.58-20.63-27.74s-16.26-20.21-27.61-17.35c11.4-10.35,28.26-14.31,43.08-10.12,7.39,2.09,14.15,6.01,21.49,8.31,23.14,7.26,50.7-4.43,61.56-26.12,7.94-15.85,7.2-34.59,4.65-52.14-2.49-17.14-7.04-34.97-19.17-47.33-6.37-6.48-14.5-11.06-23.06-14.12-11.65-4.17-24.27-5.7-35.28-11.35-16.13-8.29-27.23-25.58-28.05-43.69-.73-16.13,7.87-37.82,22.95-45.75,8.03-4.23,19.69-4.17,28.52-5.32,12.24-1.6,24.53-2.78,36.85-3.54Z"/>
  </g>
</svg>