<?xml version="1.0" encoding="UTF-8"?>
<svg id="Layer_2" data-name="Layer 2" xmlns="http://www.w3.org/2000/svg" viewBox="0 0 108.7 153.82">
  <defs>
    <style>
      .cls-1 {
        fill: #f1f2f2;
      }

      .cls-2 {
        fill: #231f20;
      }

      .cls-3, .cls-4 {
        fill: #fff;
      }

      .cls-5 {
        fill: #e96aa8;
      }

      .cls-4 {
        stroke: #231f20;
        stroke-miterlimit: 10;
        stroke-width: 12px;
      }
    </style>
  </defs>
  <g id="Layer_1-2" data-name="Layer 1">
    <g>
      <g>
        <g>
          <ellipse class="cls-4" cx="24.25" cy="55.77" rx="8.9" ry="52.26" transform="translate(-16.06 10.24) rotate(-18.02)"/>
          <ellipse class="cls-4" cx="24.96" cy="57.95" rx="5.38" ry="31.58" transform="translate(-16.7 10.57) rotate(-18.02)"/>
        </g>
        <g>
          <ellipse class="cls-4" cx="84.45" cy="60.11" rx="52.26" ry="8.9" transform="translate(1.16 121.82) rotate(-71.98)"/>
          <ellipse class="cls-4" cx="83.74" cy="62.3" rx="31.58" ry="5.38" transform="translate(-1.41 122.66) rotate(-71.98)"/>
        </g>
        <ellipse class="cls-4" cx="58.19" cy="109.89" rx="44.52" ry="37.94"/>
        <g>
          <path class="cls-3" d="M40.9,103.05l3.88,2.3c-.45,4.17-2.05,7.11-3.88,7.11-2.19,0-4-4.25-4-9.42s1.81-9.42,4-9.42c1.68,0,3.19,2.49,3.76,6.21l-3.76,3.21Z"/>
          <path class="cls-2" d="M40.9,103.05c1.84.64,3.92.45,5.66.23.67,2.78,1.44,5.27.71,8.39-.92,4.56-5.99,7.5-10.49,4.65-4.19-2.75-5.72-8.09-5.86-12.69,0-4.7.96-9.27,4.62-12.83,2.8-2.75,7.7-2.78,10.06.38,2.48,3.14,1.93,7.03,1.14,10.55-1.82.1-4.05.33-5.83,1.32h0ZM40.9,103.05c.3-1.81.99-3.46,2.11-5.15,0,0-.86,2.32-.86,2.32-.71-1-1.56-2.25-2.52-2.73-.16-.06-.31-.07-.33.06.11.82,1.96,1.16,2.73.9.46-.13.71-.24,1.05-.4.26-.09.17.18.14.55-.22,1.5-.34,3.14-.3,4.77,0,1.55.19,3.09.39,4.44,0,.12,0,.21-.1.19-.36-.13-.75-.35-1.17-.45-.82-.28-2.53.12-2.78.8-.11.37.33.24.7-.07.82-.65,1.68-1.87,2.49-3.18l1.14,2.27c-1.26-1.36-2.12-2.74-2.68-4.33h0Z"/>
        </g>
        <g>
          <path class="cls-3" d="M72.77,103.05l3.88,2.3c-.45,4.17-2.05,7.11-3.88,7.11-2.19,0-4-4.25-4-9.42s1.81-9.42,4-9.42c1.68,0,3.19,2.49,3.76,6.21l-3.76,3.21Z"/>
          <path class="cls-2" d="M72.77,103.05c1.84.64,3.92.45,5.66.23.67,2.78,1.44,5.27.71,8.39-.92,4.56-5.99,7.5-10.49,4.65-4.19-2.75-5.72-8.09-5.86-12.69,0-4.7.96-9.27,4.62-12.83,2.8-2.75,7.7-2.78,10.06.38,2.48,3.14,1.93,7.03,1.14,10.55-1.82.1-4.05.33-5.83,1.32h0ZM72.77,103.05c.3-1.81.99-3.46,2.11-5.15,0,0-.86,2.32-.86,2.32-.71-1-1.56-2.25-2.52-2.73-.62-.19-.3.46.35.76.76.42,2.04.34,2.76-.05.5-.21.59-.32.48.41-.45,2.87-.38,6.38.08,9.21.03.27-.12.21-.33.09-.3-.13-.58-.25-.94-.35-.82-.28-2.53.12-2.78.8-.11.37.33.24.7-.07.82-.65,1.68-1.87,2.49-3.18l1.14,2.27c-1.26-1.36-2.12-2.74-2.68-4.33h0Z"/>
        </g>
        <path class="cls-4" d="M59.82,122.7l2.35-4.06c.72-1.25-.18-2.82-1.63-2.82h-4.69c-1.45,0-2.35,1.57-1.63,2.82l2.35,4.06c.72,1.25,2.53,1.25,3.26,0Z"/>
        <g>
          <path class="cls-4" d="M55.8,125.68v6.44c0,.66.53,1.19,1.19,1.19s1.19-.53,1.19-1.19v-8.23l-2.39,1.78Z"/>
          <path class="cls-4" d="M58.19,123.86v8.26c0,.66.53,1.19,1.19,1.19s1.19-.53,1.19-1.19v-6.48l-2.39-1.79Z"/>
        </g>
        <line class="cls-4" x1="58.34" y1="123.86" x2="53.82" y2="126.82"/>
        <line class="cls-4" x1="58.04" y1="123.86" x2="62.55" y2="126.82"/>
      </g>
      <g>
        <g>
          <g>
            <ellipse class="cls-1" cx="24.15" cy="56.27" rx="8.9" ry="52.26" transform="translate(-16.22 10.23) rotate(-18.02)"/>
            <path class="cls-2" d="M39.83,106.54c-3.19,0-7.52-6.92-10.68-12.95-4.67-8.89-9.62-21.11-13.94-34.41-4.33-13.3-7.51-26.09-8.97-36.03-1.06-7.2-1.64-16,1.59-17.05,3.22-1.06,7.94,6.41,11.32,12.85,4.67,8.89,9.62,21.11,13.94,34.41,4.33,13.3,7.51,26.1,8.97,36.03,1.06,7.2,1.64,16-1.59,17.05-.21.07-.42.1-.64.1ZM8.46,7.01c-.13,0-.24.02-.32.05-.73.24-2.95,2.09-.91,15.95,1.45,9.88,4.62,22.62,8.93,35.86,4.31,13.25,9.24,25.41,13.88,34.25,6.51,12.41,9.39,12.6,10.12,12.36.73-.24,2.95-2.09.91-15.95-1.45-9.88-4.62-22.62-8.93-35.86-4.31-13.25-9.24-25.41-13.88-34.25C12.46,8.37,9.54,7.01,8.46,7.01Z"/>
          </g>
          <g>
            <ellipse class="cls-5" cx="24.86" cy="58.45" rx="5.38" ry="31.58" transform="translate(-16.86 10.56) rotate(-18.02)"/>
            <path class="cls-2" d="M34.36,89.02c-3.73,0-10.46-14.51-15.1-28.75h0c-2.62-8.05-4.54-15.79-5.43-21.8-.95-6.44-.58-9.98,1.1-10.52,1.67-.54,4.05,2.1,7.08,7.86,2.82,5.38,5.82,12.78,8.44,20.82,4.81,14.79,7.96,31.14,4.33,32.32-.13.04-.27.06-.42.06ZM20.22,59.96c5.96,18.31,12.3,28.67,14.25,28.04,1.94-.63.98-12.75-4.97-31.06-2.6-8-5.58-15.33-8.37-20.67-3.07-5.85-5.08-7.64-5.88-7.38-.79.26-1.38,2.88-.42,9.42.88,5.96,2.79,13.64,5.39,21.64h0Z"/>
          </g>
        </g>
        <g>
          <g>
            <ellipse class="cls-1" cx="84.35" cy="60.61" rx="52.26" ry="8.9" transform="translate(.61 122.07) rotate(-71.98)"/>
            <path class="cls-2" d="M68.67,110.88c-.22,0-.44-.03-.65-.1-3.23-1.05-2.65-9.85-1.59-17.05,1.46-9.93,4.64-22.73,8.97-36.03,4.33-13.3,9.28-25.52,13.94-34.41,3.38-6.44,8.09-13.9,11.32-12.85,3.23,1.05,2.65,9.85,1.59,17.05-1.46,9.93-4.64,22.73-8.97,36.03h0c-7.63,23.44-18.63,47.36-24.61,47.36ZM100.04,11.35c-1.09,0-4.01,1.37-9.8,12.41-4.64,8.84-9.57,21.01-13.88,34.26-4.31,13.25-7.48,25.98-8.93,35.86-2.04,13.87.18,15.72.91,15.95,3.86,1.27,14.42-17.18,24-46.62l.48.15-.48-.15c4.31-13.25,7.48-25.98,8.93-35.86,2.04-13.87-.18-15.72-.91-15.95-.08-.03-.19-.05-.32-.05Z"/>
          </g>
          <g>
            <ellipse class="cls-5" cx="83.64" cy="62.8" rx="31.58" ry="5.38" transform="translate(-1.95 122.9) rotate(-71.98)"/>
            <path class="cls-2" d="M74.13,93.36c-.14,0-.28-.02-.42-.06-3.63-1.18-.48-17.54,4.33-32.32,2.62-8.05,5.62-15.44,8.44-20.82,3.02-5.76,5.41-8.4,7.08-7.86,1.67.54,2.04,4.08,1.1,10.52-.88,6.01-2.81,13.76-5.43,21.8h0c-4.63,14.24-11.36,28.75-15.1,28.75ZM93.09,33.22c-.88,0-2.84,1.9-5.72,7.4-2.8,5.33-5.77,12.67-8.37,20.67-5.96,18.31-6.91,30.43-4.97,31.06,1.93.63,8.3-9.73,14.25-28.04h0c2.6-7.99,4.52-15.68,5.39-21.64.96-6.54.38-9.17-.42-9.42-.05-.02-.1-.02-.16-.02Z"/>
          </g>
        </g>
        <g>
          <ellipse class="cls-1" cx="58.08" cy="110.38" rx="44.52" ry="37.94"/>
          <path class="cls-2" d="M58.08,148.82c-24.82,0-45.02-17.24-45.02-38.44s20.19-38.44,45.02-38.44,45.02,17.24,45.02,38.44-20.19,38.44-45.02,38.44ZM58.08,72.95c-24.27,0-44.02,16.79-44.02,37.44s19.75,37.44,44.02,37.44,44.02-16.79,44.02-37.44-19.75-37.44-44.02-37.44Z"/>
        </g>
        <g>
          <path class="cls-5" d="M40.79,103.55l3.88,2.3c-.45,4.17-2.05,7.11-3.88,7.11-2.19,0-4-4.25-4-9.42s1.81-9.42,4-9.42c1.68,0,3.19,2.49,3.76,6.21l-3.76,3.21Z"/>
          <path class="cls-2" d="M40.79,103.55c1.54.81,2.94,1.39,4.28,2.07-.06,1.73-.3,3.45-.96,5.14-.59,1.73-2.57,3.86-4.6,2.72-3.09-2.07-3.48-6.1-3.7-9.45.04-3.42.36-6.92,2.76-9.7,1.77-1.87,4.09-.86,5.09,1.12.87,1.64,1.19,3.35,1.33,5.08-1.3.98-2.69,1.87-4.2,3.02h0ZM40.79,103.55c1.07-1.04,2.2-2.3,3.49-3.53l-.14.38c-.53-1.95-1.16-4.58-3.04-5.43-2.77-.06-3.41,6.84-3.3,9.01-.12,1.77,1.03,9.64,3.84,7.85,1.64-1.46,2.2-3.87,2.65-6.02,0,0,.19.37.19.37-1.35-.91-2.55-1.87-3.68-2.64h0Z"/>
        </g>
        <g>
          <path class="cls-5" d="M72.67,103.55l3.88,2.3c-.45,4.17-2.05,7.11-3.88,7.11-2.19,0-4-4.25-4-9.42s1.81-9.42,4-9.42c1.68,0,3.19,2.49,3.76,6.21l-3.76,3.21Z"/>
          <path class="cls-2" d="M72.67,103.55c1.54.81,2.94,1.39,4.28,2.07-.06,1.73-.3,3.45-.96,5.14-.59,1.73-2.57,3.86-4.6,2.72-3.09-2.07-3.48-6.1-3.7-9.45.04-3.42.36-6.92,2.76-9.7,1.77-1.87,4.09-.86,5.09,1.12.87,1.64,1.19,3.35,1.33,5.08-1.3.98-2.69,1.87-4.2,3.02h0ZM72.67,103.55c1.07-1.04,2.2-2.3,3.49-3.53l-.14.38c-.53-1.95-1.16-4.58-3.04-5.43-2.77-.06-3.41,6.84-3.3,9.01-.12,1.77,1.03,9.64,3.84,7.85,1.64-1.46,2.2-3.87,2.65-6.02,0,0,.19.37.19.37-1.35-.91-2.55-1.87-3.68-2.64h0Z"/>
        </g>
        <g>
          <path class="cls-5" d="M59.71,123.2l2.35-4.06c.72-1.25-.18-2.82-1.63-2.82h-4.69c-1.45,0-2.35,1.57-1.63,2.82l2.35,4.06c.72,1.25,2.53,1.25,3.26,0Z"/>
          <path class="cls-2" d="M58.08,124.64c-.86,0-1.63-.45-2.06-1.19l-2.35-4.06c-.43-.75-.43-1.64,0-2.38s1.2-1.19,2.06-1.19h4.69c.86,0,1.63.44,2.06,1.19.43.75.43,1.64,0,2.38l-2.35,4.06c-.43.75-1.2,1.19-2.06,1.19h0ZM55.74,116.81c-.5,0-.95.26-1.2.69-.25.43-.25.95,0,1.38l2.35,4.06c.25.43.7.69,1.2.69h0c.5,0,.95-.26,1.2-.69l2.35-4.06c.25-.43.25-.95,0-1.38-.25-.43-.7-.69-1.2-.69h-4.69Z"/>
        </g>
        <g>
          <g>
            <path class="cls-3" d="M55.7,126.18v6.44c0,.66.53,1.19,1.19,1.19s1.19-.53,1.19-1.19v-8.23l-2.39,1.78Z"/>
            <path class="cls-2" d="M56.89,134.07c-.8,0-1.44-.65-1.44-1.44v-6.57l2.89-2.16v8.73c0,.8-.65,1.44-1.44,1.44ZM55.95,126.3v6.32c0,.52.42.94.94.94s.94-.42.94-.94v-7.73l-1.89,1.41Z"/>
          </g>
          <g>
            <path class="cls-3" d="M58.08,124.36v8.26c0,.66.53,1.19,1.19,1.19s1.19-.53,1.19-1.19v-6.48l-2.39-1.79Z"/>
            <path class="cls-2" d="M59.28,134.07c-.8,0-1.44-.65-1.44-1.44v-8.73l.4.26,2.49,1.86v6.6c0,.8-.65,1.44-1.44,1.44ZM58.33,124.86v7.76c0,.52.42.94.94.94s.94-.42.94-.94v-6.35l-1.89-1.41Z"/>
          </g>
        </g>
        <rect class="cls-2" x="53.28" y="125.59" width="5.4" height=".5" transform="translate(-59.76 51.18) rotate(-33.19)"/>
        <rect class="cls-2" x="59.94" y="123.14" width=".5" height="5.4" transform="translate(-78.06 107.26) rotate(-56.78)"/>
      </g>
    </g>
  </g>
</svg>