<?xml version="1.0" encoding="UTF-8"?>
<svg id="Layer_2" data-name="Layer 2" xmlns="http://www.w3.org/2000/svg" xmlns:xlink="http://www.w3.org/1999/xlink" viewBox="0 0 155.84 174.38">
  <defs>
    <style>
      .cls-1 {
        fill: url(#linear-gradient-3);
      }

      .cls-1, .cls-2, .cls-3, .cls-4, .cls-5, .cls-6, .cls-7, .cls-8, .cls-9, .cls-10 {
        stroke: #231f20;
        stroke-miterlimit: 10;
      }

      .cls-2 {
        fill: url(#New_Gradient_Swatch_2-3);
      }

      .cls-3 {
        fill: url(#New_Gradient_Swatch_2-2);
      }

      .cls-4 {
        fill: url(#New_Gradient_Swatch_2);
      }

      .cls-5 {
        fill: url(#linear-gradient-6);
      }

      .cls-6 {
        fill: url(#linear-gradient-5);
      }

      .cls-7 {
        fill: url(#linear-gradient-4);
      }

      .cls-8 {
        fill: url(#linear-gradient);
      }

      .cls-9 {
        fill: url(#linear-gradient-2);
      }

      .cls-10 {
        fill: url(#linear-gradient-7);
      }
    </style>
    <linearGradient id="New_Gradient_Swatch_2" data-name="New Gradient Swatch 2" x1="14.57" y1="170.54" x2="138.8" y2="170.54" gradientUnits="userSpaceOnUse">
      <stop offset="0" stop-color="#231f20"/>
      <stop offset=".15" stop-color="#fff"/>
      <stop offset=".3" stop-color="#939598"/>
      <stop offset=".48" stop-color="#fff"/>
      <stop offset=".65" stop-color="#808285"/>
      <stop offset=".84" stop-color="#fff"/>
      <stop offset="1" stop-color="#231f20"/>
    </linearGradient>
    <linearGradient id="New_Gradient_Swatch_2-2" data-name="New Gradient Swatch 2" x1="5.66" y1="89.39" x2="150.18" y2="89.39" xlink:href="#New_Gradient_Swatch_2"/>
    <linearGradient id="linear-gradient" x1="18.27" y1="93.24" x2="36.46" y2="93.24" gradientUnits="userSpaceOnUse">
      <stop offset="0" stop-color="#6d6e71"/>
      <stop offset="1" stop-color="#58595b"/>
    </linearGradient>
    <linearGradient id="linear-gradient-2" x1="39.46" y1="93.24" x2="51.65" y2="93.24" gradientUnits="userSpaceOnUse">
      <stop offset="0" stop-color="#6d6e71"/>
      <stop offset="1" stop-color="#414042"/>
    </linearGradient>
    <linearGradient id="linear-gradient-3" x1="57.02" y1="93.24" x2="66.82" y2="93.24" xlink:href="#linear-gradient-2"/>
    <linearGradient id="linear-gradient-4" x1="72.52" y1="93.24" x2="83.62" y2="93.24" xlink:href="#linear-gradient-2"/>
    <linearGradient id="linear-gradient-5" x1="87.67" y1="93.24" x2="101.2" y2="93.24" gradientUnits="userSpaceOnUse">
      <stop offset="0" stop-color="#6d6e71"/>
      <stop offset="1" stop-color="#231f20"/>
    </linearGradient>
    <linearGradient id="linear-gradient-6" x1="103.39" y1="93.24" x2="118.21" y2="93.24" xlink:href="#linear-gradient-5"/>
    <linearGradient id="linear-gradient-7" x1="118.52" y1="93.24" x2="135.78" y2="93.24" xlink:href="#linear-gradient-5"/>
    <linearGradient id="New_Gradient_Swatch_2-3" data-name="New Gradient Swatch 2" x1=".5" y1="6.05" x2="155.34" y2="6.05" xlink:href="#New_Gradient_Swatch_2"/>
  </defs>
  <g id="Layer_1-2" data-name="Layer 1">
    <g>
      <g>
        <path class="cls-4" d="M14.57,167.19l.38,6.69h123.35l.49-6.69h-10.59"/>
        <path class="cls-3" d="M5.66,11.59l8.91,155.6h12.27c-.09-.34-.14-.7-.16-1.07L18.28,25.01c-.18-2.96,1.87-5.51,4.57-5.71h0c2.7-.19,5.03,2.05,5.2,5.01l8.4,141.11c.04.62-.04,1.21-.18,1.77h5.71c-.07-.34-.11-.69-.11-1.05l-2.4-141.34c-.05-2.96,2.1-5.43,4.8-5.51h0c2.7-.08,4.94,2.26,4.99,5.22l2.4,141.34c0,.46-.05.9-.15,1.33h5.59c-.03-.21-.07-.43-.07-.65V24.19c0-2.7,2.19-4.9,4.9-4.9h0c2.7,0,4.9,2.19,4.9,4.9v142.35c0,.22-.04.43-.07.65h5.88c-.07-.38-.12-.76-.11-1.16l1.31-141.35c.03-2.96,2.24-5.37,4.95-5.38,2.71,0,4.88,2.39,4.85,5.35l-1.31,141.35c0,.41-.06.81-.14,1.19h5.56c-.04-.27-.07-.54-.06-.82l3.74-142.31c.07-2.7,2.32-4.84,5.02-4.77,2.7.07,4.84,2.32,4.77,5.02l-3.74,142.31c0,.19-.05.38-.07.57h6.14c-.09-.44-.15-.9-.13-1.38l5.02-141.27c.11-2.96,2.38-5.31,5.09-5.25,2.7.06,4.81,2.52,4.71,5.48l-5.02,141.27c-.01.4-.07.78-.16,1.15h5.57c-.06-.36-.1-.72-.08-1.1l7.47-142.16c.14-2.7,2.45-4.77,5.15-4.63s4.77,2.45,4.63,5.15l-7.47,142.16c-.01.2-.06.39-.09.59h10.59l11.38-155.6H5.66Z"/>
        <path class="cls-8" d="M36.45,165.42L28.05,24.32c-.18-2.96-2.51-5.2-5.2-5.01h0c-2.7.19-4.74,2.75-4.57,5.71l8.4,141.11c.02.37.08.73.16,1.07h9.42c.14-.56.22-1.15.18-1.77Z"/>
        <path class="cls-9" d="M51.65,165.86l-2.4-141.34c-.05-2.96-2.28-5.3-4.99-5.22h0c-2.7.08-4.85,2.54-4.8,5.51l2.4,141.34c0,.36.05.71.11,1.05h9.53c.09-.43.15-.87.15-1.33Z"/>
        <path class="cls-1" d="M66.82,166.55V24.19c0-2.7-2.19-4.9-4.9-4.9h0c-2.7,0-4.9,2.19-4.9,4.9v142.35c0,.22.04.43.07.65h9.66c.03-.21.07-.43.07-.65Z"/>
        <path class="cls-7" d="M82.32,166l1.31-141.35c.03-2.96-2.14-5.36-4.85-5.35-2.71,0-4.92,2.42-4.95,5.38l-1.31,141.35c0,.4.04.79.11,1.16h9.54c.08-.38.14-.78.14-1.19Z"/>
        <path class="cls-6" d="M97.46,166.63l3.74-142.31c.07-2.7-2.06-4.95-4.77-5.02-2.7-.07-4.95,2.06-5.02,4.77l-3.74,142.31c0,.28.02.55.06.82h9.65c.03-.19.07-.37.07-.57Z"/>
        <path class="cls-5" d="M113.19,166.05l5.02-141.27c.11-2.96-2-5.41-4.71-5.48-2.7-.06-4.98,2.29-5.09,5.25l-5.02,141.27c-.02.48.04.93.13,1.38h9.5c.09-.37.15-.75.16-1.15Z"/>
        <path class="cls-10" d="M128.3,166.61l7.47-142.16c.14-2.7-1.93-5-4.63-5.15s-5,1.93-5.15,4.63l-7.47,142.16c-.02.38.01.74.08,1.1h9.61c.03-.19.08-.38.09-.59Z"/>
      </g>
      <rect class="cls-2" x=".5" y=".5" width="154.84" height="11.09"/>
    </g>
  </g>
</svg>